<svg
  xmlns="http://www.w3.org/2000/svg"
  viewBox="0 0 250 90"
  width="250mm"
  height="90mm"
>
  <g stroke-width="0.1" stroke="black" fill="none">
    <rect width="250" height="90" rx="20" ry="20" />

    <g transform="translate(125, 45)">
      <rect
        x="0"
        y="-30"
        transform="translate(-5, -1.45)"
        width="10"
        height="2.9"
      />

      <rect
        x="0"
        y="30"
        transform="translate(-5, -1.45)"
        width="10"
        height="2.9"
      />

      <rect
        x="-80"
        y="-30"
        transform="translate(-5, -1.45)"
        width="10"
        height="2.9"
      />

      <rect
        x="-80"
        y="30"
        transform="translate(-5, -1.45)"
        width="10"
        height="2.9"
      />

      <rect
        x="80"
        y="-30"
        transform="translate(-5, -1.45)"
        width="10"
        height="2.9"
      />

      <rect
        x="80"
        y="30"
        transform="translate(-5, -1.45)"
        width="10"
        height="2.9"
      />

      <rect
        x="-110"
        y="0"
        transform="translate(-1.45, -5)"
        width="2.9"
        height="10"
      />

      <rect
        x="110"
        y="0"
        transform="translate(-1.45, -5)"
        width="2.9"
        height="10"
      />
    </g>

    <g transform="translate(125, 45)">
      <path
        transform="translate(-4.35, -1.45)"
        d="
        M 0, 0
        L 2.9, 0
        L 2.9, -2.9
        L 5.8, -2.9
        L 5.8, 0
        L 8.7, 0
        L 8.7, 2.9
        L 5.8, 2.9
        L 5.8, 5.8
        L 2.9, 5.8
        L 2.9, 2.9
        L 0, 2.9
        Z
        "
      />

      <path
        transform="translate(-4.35, -1.45) translate(-80, 0)"
        d="
        M 0, 0
        L 2.9, 0
        L 2.9, -2.9
        L 5.8, -2.9
        L 5.8, 0
        L 8.7, 0
        L 8.7, 2.9
        L 5.8, 2.9
        L 5.8, 5.8
        L 2.9, 5.8
        L 2.9, 2.9
        L 0, 2.9
        Z
        "
      />

      <path
        transform="translate(-4.35, -1.45) translate(80, 0)"
        d="
        M 0, 0
        L 2.9, 0
        L 2.9, -2.9
        L 5.8, -2.9
        L 5.8, 0
        L 8.7, 0
        L 8.7, 2.9
        L 5.8, 2.9
        L 5.8, 5.8
        L 2.9, 5.8
        L 2.9, 2.9
        L 0, 2.9
        Z
        "
      />
    </g>
  </g>
</svg>
